PathFileType	4	(X/Y/Z)	c:/Users/goper/Files/vsCode/490R/osim_files/C08/C08_Fast_01.trc
DataRate	CameraRate	NumFrames	NumMarkers	Units                	OrigDataRate	OrigDataStartFrame	OrigNumFrames
250.00	250.00	10	36	mm	250.0	1699	2264
                Frame#	Time	LPSIS			LASIS			LTH1			LTH2			LTH3			LTH4			LLFE			LMFE			LSH1			LSH2			LSH3			LSH4			LLMAL			LMMAL			LCAL			LMTP5			LTOE			LMTP1			RPSIS			RASIS			RTH1			RTH2			RTH3			RTH4			RLFE			RMFE			RSH1			RSH2			RSH3			RSH4			RLMAL			RMMAL			RCAL			RMTP1			RTOE			RMTP5		
		X1	Y1	Z1	X2	Y2	Z2	X3	Y3	Z3	X4	Y4	Z4	X5	Y5	Z5	X6	Y6	Z6	X7	Y7	Z7	X8	Y8	Z8	X9	Y9	Z9	X10	Y10	Z10	X11	Y11	Z11	X12	Y12	Z12	X13	Y13	Z13	X14	Y14	Z14	X15	Y15	Z15	X16	Y16	Z16	X17	Y17	Z17	X18	Y18	Z18	X19	Y19	Z19	X20	Y20	Z20	X21	Y21	Z21	X22	Y22	Z22	X23	Y23	Z23	X24	Y24	Z24	X25	Y25	Z25	X26	Y26	Z26	X27	Y27	Z27	X28	Y28	Z28	X29	Y29	Z29	X30	Y30	Z30	X31	Y31	Z31	X32	Y32	Z32	X33	Y33	Z33	X34	Y34	Z34	X35	Y35	Z35	X36	Y36	Z36

1699	6.79200	-3518.22290	1033.70972	206.71118	-3733.21509	996.27197	298.41989	-3589.56323	726.38232	357.27936	-3573.59741	653.66718	339.67834	-3557.53760	583.24915	329.15222	-3651.14429	646.30615	317.15137	-3540.63525	533.99481	316.59470	-3543.64868	527.59387	189.13210	-3452.03296	428.78104	327.83972	-3447.62280	383.93051	329.86758	-3511.26514	411.82068	323.33136	-3495.55762	369.88162	321.21844	-3365.57031	117.75460	260.29108	-3388.85303	125.87258	173.95743	-3293.92480	104.32561	208.33472	-3470.57324	44.49708	282.75296	-3451.18140	-1.92916	219.73671	0.00000	0.00000	0.00000	-3518.91479	1027.96313	147.36003	-3723.38501	1000.37524	60.30661	-3720.31421	738.00195	-12.32104	-3749.88940	664.59894	-0.74236	-3777.53833	588.54126	10.29244	-3818.77979	692.80341	21.58236	-3811.70728	530.41101	21.91334	-3821.98242	521.67328	148.05258	0.00000	0.00000	0.00000	-3811.06836	394.64050	-6.48736	-3845.02588	458.87537	8.04757	-3857.95630	416.41818	0.10324	0.00000	0.00000	0.00000	0.00000	0.00000	0.00000	-3877.48340	71.77345	103.79054	0.00000	0.00000	0.00000	0.00000	0.00000	0.00000	-4068.22705	102.71740	-4.26475
1700	6.79600	-3522.14673	1033.55457	205.05240	-3738.08618	996.10999	298.04523	-3594.03076	726.11285	356.97473	-3577.88892	653.32214	339.39395	-3559.15601	581.86890	326.88998	-3655.54907	645.92120	317.06366	-3548.92432	535.47864	319.84363	-3548.10254	527.30060	188.99043	-3455.45093	429.15192	327.72614	-3450.70337	384.43216	329.85123	-3514.60864	411.75012	323.28296	-3498.58447	369.96899	321.23035	-3366.40991	118.70309	260.51651	-3389.77905	126.79650	174.18518	-3294.92407	105.79378	208.78427	-3470.70581	44.38422	282.92609	-3451.38867	-1.90706	219.76096	0.00000	0.00000	0.00000	-3523.88892	1027.50903	146.84349	-3728.60156	1000.13440	59.92123	-3725.96948	737.92719	-12.35830	-3755.74731	664.55957	-0.75192	-3783.59839	588.64703	10.53557	-3824.50366	693.10187	21.70506	-3817.76318	530.43579	22.26854	-3828.53442	522.30115	148.17940	0.00000	0.00000	0.00000	-3816.24756	394.36774	-6.24904	-3850.58276	458.37003	8.51285	-3863.25293	415.79877	0.60495	0.00000	0.00000	0.00000	-3879.39038	71.71668	104.41091	0.00000	0.00000	0.00000	0.00000	0.00000	0.00000	-4068.35840	100.80061	-5.78004	0.00000	0.00000	0.00000
1701	6.80000	-3528.59570	1032.76794	205.67554	-3743.02051	995.95630	297.63513	-3598.56714	725.94659	356.65088	-3582.39429	653.08551	339.20343	-3563.42383	581.57391	326.63174	-3660.01953	645.55267	316.92694	-3549.11060	533.59460	316.23862	-3552.68506	526.99408	188.82399	-3458.99731	429.55045	327.64197	-3453.87256	384.99609	329.85025	-3515.83545	410.88971	321.06503	-3501.66992	370.02280	321.19748	-3367.31714	119.74998	260.68372	-3390.67822	127.64748	174.43236	-3295.75854	107.48941	209.03543	-3471.79053	44.33775	283.79419	-3451.59448	-1.85292	219.78752	0.00000	0.00000	0.00000	-3528.92480	1027.08398	146.27644	-3733.86084	999.89825	59.45642	-3731.64551	737.78986	-12.42601	-3761.65527	664.53381	-0.73597	-3789.75781	588.76245	10.76913	-3830.25220	693.43933	21.84630	-3823.74316	530.43756	22.65873	-3834.90210	522.87030	148.18217	0.00000	0.00000	0.00000	-3821.34229	394.14120	-5.95096	-3856.11304	457.86984	9.05261	-3868.54102	415.21353	1.19020	0.00000	0.00000	0.00000	0.00000	0.00000	0.00000	-4072.48462	98.09259	-1.72278	0.00000	0.00000	0.00000	0.00000	0.00000	0.00000	-3896.51099	66.82394	113.54123
1702	6.80400	-3533.56934	1032.37854	205.16270	-3747.98877	995.77051	297.19687	-3602.99341	725.63336	356.26877	-3586.90527	652.75708	338.96268	-3567.95068	581.27863	326.50177	-3664.53784	645.16071	316.77264	-3553.42603	533.31104	315.98831	-3557.27344	526.61664	188.64449	-3462.66284	429.97882	327.52930	-3457.16455	385.51797	329.82156	-3519.45605	410.87866	320.99341	-3504.72974	370.03632	321.12411	-3368.34790	120.82065	260.90768	-3391.74561	128.68050	174.69998	-3297.07031	109.28373	209.92221	-3471.92090	44.26770	283.96295	-3451.79565	-1.82682	219.82388	0.00000	0.00000	0.00000	-3534.38696	1026.64209	145.84056	-3739.20312	999.67371	58.98183	-3737.46021	737.70551	-12.53033	-3767.60840	664.47455	-0.65671	-3795.90991	588.87646	11.06073	-3836.07275	693.77991	22.03741	-3829.78589	530.50934	23.06217	-3841.18555	523.37982	148.24208	0.00000	0.00000	0.00000	-3826.39062	393.92044	-5.64430	-3861.64819	457.34586	9.67752	-3873.70850	414.58600	1.87512	0.00000	0.00000	0.00000	-3899.25928	65.93736	114.76695	0.00000	0.00000	0.00000	0.00000	0.00000	0.00000	-4074.00806	95.54993	-0.64741	0.00000	0.00000	0.00000
1703	6.80800	-3538.69824	1032.02527	204.56918	-3752.97827	995.54736	296.75085	-3607.60229	725.36450	355.88351	-3591.44653	652.41492	338.62796	-3572.49170	580.95734	326.26721	-3669.17236	644.80194	316.58105	-3562.07983	534.77808	319.26993	-3562.10229	526.30194	188.47162	-3466.34497	430.35736	327.37216	-3460.55762	386.09372	329.78198	-3525.16357	411.45767	322.99551	-3508.05249	370.15237	321.08282	-3369.36548	121.98386	261.07272	-3392.75562	129.64412	174.94228	-3298.84399	110.87847	210.84900	-3471.26465	44.32756	283.36026	-3452.08203	-1.74666	219.86153	0.00000	0.00000	0.00000	-3539.73047	1026.24707	145.36461	-3744.58252	999.44153	58.44353	-3743.27686	737.57007	-12.57260	-3773.61914	664.43640	-0.55975	-3802.19995	588.97754	11.39720	-3841.90820	694.08771	22.26971	-3835.77783	530.53595	23.49601	-3847.30347	523.78320	148.31174	0.00000	0.00000	0.00000	-3831.32764	393.79803	-5.27359	-3867.16992	456.84875	10.37639	-3878.89990	413.97006	2.62054	-3901.93237	65.02777	116.01627	0.00000	0.00000	0.00000	0.00000	0.00000	0.00000	-4075.40967	92.88198	0.52419	0.00000	0.00000	0.00000	-4010.89331	28.58934	101.29355
1704	6.81200	-3543.97070	1031.65710	204.08505	-3758.01294	995.34039	296.30750	-3612.19678	725.05237	355.53757	-3596.10986	652.08557	338.36157	-3579.84839	581.78290	328.18796	-3673.87329	644.46783	316.39868	-3562.42822	532.74573	315.53278	-3566.93701	525.90454	188.27713	-3470.21484	430.73016	327.22986	-3463.99292	386.64639	329.72687	-3528.86499	411.32199	322.87170	-3511.29199	370.14133	321.00629	-3370.38696	123.09299	261.31586	-3393.83301	130.67215	175.22600	-3298.88843	113.00838	210.43382	-3471.45386	44.48315	283.44449	-3452.33691	-1.67825	219.87561	0.00000	0.00000	0.00000	0.00000	0.00000	0.00000	-3749.97144	999.19269	57.82013	-3749.06616	737.40771	-12.60759	-3779.61987	664.37793	-0.39126	-3808.34644	589.04565	11.74855	-3847.79272	694.37286	22.54486	-3841.76147	530.54053	23.96368	-3853.14746	524.06488	148.48463	0.00000	0.00000	0.00000	-3836.34326	393.70349	-4.98701	-3872.62012	456.31979	11.14414	-3883.99219	413.33130	3.40730	-3904.53491	64.17261	117.28309	0.00000	0.00000	0.00000	0.00000	0.00000	0.00000	-4074.50195	90.42645	-1.45135	0.00000	0.00000	0.00000	0.00000	0.00000	0.00000
1705	6.81600	-3549.12378	1031.33752	203.57626	-3763.11084	995.12988	295.82297	-3616.91284	724.73730	355.15530	-3600.82080	651.75555	338.08752	-3581.95068	580.30457	325.84848	-3678.67114	644.16083	316.22546	-3567.03906	532.35895	315.22702	-3571.86914	525.42535	188.10704	-3474.21875	431.14398	327.03955	-3467.55981	387.17017	329.64481	-3530.44849	410.33960	320.56961	-3514.70605	370.15738	320.91110	-3371.44824	124.48061	261.44595	-3395.05640	131.83423	175.51172	-3300.87671	114.72912	211.47266	-3471.66724	44.53893	283.59564	-3452.55444	-1.65775	219.89610	0.00000	0.00000	0.00000	-3549.29224	1025.74292	143.30167	-3755.50220	999.02631	57.22608	-3754.97974	737.26874	-12.62206	-3785.55811	664.27490	-0.14199	-3814.55664	589.15973	12.14367	-3853.62109	694.54248	22.86955	-3847.70996	530.52289	24.49988	-3858.68433	524.15906	148.73225	0.00000	0.00000	0.00000	-3841.19824	393.57458	-4.65467	-3878.02051	455.75867	11.96300	-3888.99561	412.64780	4.27019	-3906.99756	63.40001	118.46509	0.00000	0.00000	0.00000	0.00000	0.00000	0.00000	0.00000	0.00000	0.00000	-4115.49170	130.71562	58.37399	0.00000	0.00000	0.00000
1706	6.82000	-3545.94824	1033.21838	199.80881	-3768.23291	994.90155	295.38303	-3621.60938	724.47644	354.75674	-3605.59058	651.41296	337.75937	-3586.65649	579.88348	325.53427	-3683.45679	643.79376	316.04083	-3571.92725	532.08765	315.05969	-3576.99731	525.03900	187.91130	-3478.34570	431.58014	326.86029	-3471.27222	387.75854	329.55170	-3534.34790	410.18378	320.45758	-3518.16992	370.19559	320.81271	-3372.61914	125.61490	261.71542	-3394.53516	133.06114	173.28406	-3302.01147	116.78739	211.68111	-3471.97607	44.54198	283.77002	-3452.77637	-1.59567	219.94116	0.00000	0.00000	0.00000	-3555.58667	1025.27490	143.87828	-3761.09619	998.85748	56.60492	-3760.84839	737.06793	-12.51772	-3791.52563	664.15698	0.13815	-3820.65552	589.16040	12.69712	-3859.49463	694.65564	23.33115	-3853.65137	530.48248	25.08255	-3863.80469	523.99652	149.13818	0.00000	0.00000	0.00000	-3845.96167	393.44699	-4.38653	-3883.33008	455.17059	12.79834	-3893.93188	411.99939	5.12501	-3909.50708	62.93799	119.50723	0.00000	0.00000	0.00000	0.00000	0.00000	0.00000	-4117.32373	127.81413	59.71550	0.00000	0.00000	0.00000	0.00000	0.00000	0.00000
1707	6.82400	-3559.42114	1030.86719	202.48207	-3773.39087	994.64972	294.92560	-3626.33984	724.12933	354.31082	-3610.54004	651.10242	337.47821	-3591.54150	579.44012	325.24420	-3688.34644	643.43188	315.80331	-3576.81567	531.72400	314.74139	-3582.20044	524.52533	187.73491	-3482.48560	431.94629	326.63467	-3475.10596	388.30667	329.44711	-3540.61646	410.82773	322.44864	-3521.78979	370.20853	320.70895	-3373.95557	127.15701	261.79370	-3397.54443	134.00818	176.03172	-3303.21045	118.97825	211.91374	-3472.18066	44.63826	283.91879	-3453.00098	-1.54915	219.95183	0.00000	0.00000	0.00000	-3560.93555	1024.96899	143.38255	-3766.76685	998.69324	55.97955	-3766.75000	736.88293	-12.33037	-3797.41821	663.98859	0.55408	-3826.71362	589.08807	13.31493	-3865.32422	694.64734	23.89090	-3859.51440	530.36462	25.72020	-3868.57202	523.71558	149.52141	0.00000	0.00000	0.00000	-3850.55664	393.28122	-4.10472	-3888.49438	454.53546	13.65681	-3898.72290	411.26303	5.95192	-3912.22754	62.70691	120.42680	0.00000	0.00000	0.00000	0.00000	0.00000	0.00000	0.00000	0.00000	0.00000	-4119.16357	125.08881	61.09341	0.00000	0.00000	0.00000
1708	6.82800	-3564.66406	1030.66260	201.84473	-3778.58496	994.41510	294.50491	-3631.15308	723.79126	353.87564	-3615.48975	650.75043	337.18063	-3596.59717	579.06403	324.98251	-3693.46753	643.19617	315.69284	-3586.13354	533.17334	318.02036	-3587.69580	524.08386	187.46399	-3486.78198	432.33542	326.36124	-3478.99243	388.92889	329.28409	-3544.69214	410.61621	322.27704	-3525.31494	370.12881	320.54004	-3375.24854	128.56171	261.93805	-3398.90283	135.22614	176.32954	-3304.53833	121.32386	212.17250	-3472.49780	44.38632	284.25317	-3453.23364	-1.51898	220.00375	0.00000	0.00000	0.00000	-3566.20752	1024.70642	142.88464	-3772.48535	998.55322	55.41084	-3772.68164	736.70966	-12.08775	-3803.23193	663.79364	1.09739	-3832.64038	588.98645	14.10848	-3871.09375	694.55634	24.61564	-3865.29199	530.18915	26.34158	-3873.08179	523.25165	149.85918	-3837.24927	438.63443	6.58936	-3855.07080	393.02573	-3.85204	-3893.46484	453.84479	14.41595	-3903.36377	410.46732	6.73861	-3915.13257	62.46411	121.20334	0.00000	0.00000	0.00000	0.00000	0.00000	0.00000	0.00000	0.00000	0.00000	-4121.12549	122.54249	62.47021	0.00000	0.00000	0.00000
